<?xml version="1.0" standalone="no"?>
<!DOCTYPE svg PUBLIC "-//W3C//DTD SVG 20010904//EN"
 "http://www.w3.org/TR/2001/REC-SVG-20010904/DTD/svg10.dtd">
<svg version="1.0" xmlns="http://www.w3.org/2000/svg"
 width="790.000000pt" height="100.000000pt" fill="white" viewBox="0 0 300.000000 393.000000">

<g transform="translate(0.000000,393.000000) scale(0.100000,-0.100000)"
fill="#000000" stroke="none">
<path d="M2817 3763 c-4 -3 -7 -831 -7 -1840 l0 -1833 35 0 35 0 0 1840 0
1840 -28 0 c-16 0 -32 -3 -35 -7z"/>
<path d="M3710 1810 l0 -1281 533 3 c513 4 535 5 612 26 257 72 465 239 591
476 91 171 109 334 101 905 -5 401 -10 447 -61 571 -59 147 -182 310 -307 405
-73 57 -200 118 -304 147 -77 22 -97 22 -622 26 l-543 3 0 -1281z m1125 1156
c158 -40 320 -142 418 -266 127 -159 173 -282 187 -499 21 -320 7 -816 -27
-965 -53 -237 -287 -483 -532 -560 -123 -39 -228 -46 -663 -46 l-408 0 0 1181
0 1180 478 -4 c411 -3 487 -6 547 -21z"/>
<path d="M4080 1809 l0 -931 318 5 c337 5 361 8 474 59 116 54 224 175 268
301 28 79 40 246 40 557 0 313 -12 478 -40 561 -59 175 -228 326 -407 364 -50
11 -145 15 -360 15 l-293 0 0 -931z m600 820 c194 -31 348 -186 381 -384 16
-96 16 -796 0 -890 -16 -94 -52 -165 -120 -235 -112 -115 -172 -130 -508 -130
l-253 0 0 818 c0 450 3 822 7 825 10 11 422 8 493 -4z"/>
<path d="M5850 2875 l0 -215 338 -2 337 -3 3 -1063 2 -1062 235 0 235 0 2
1062 3 1063 338 3 337 2 0 215 0 215 -915 0 -915 0 0 -215z m1720 0 l0 -115
-335 0 -335 0 0 -1065 0 -1065 -135 0 -135 0 0 1065 0 1065 -335 0 -335 0 0
115 0 115 805 0 805 0 0 -115z"/>
<path d="M310 3043 c-1 -5 180 -558 402 -1230 l403 -1223 145 0 146 0 202 613
c111 336 294 890 406 1230 l204 617 -197 0 -197 0 -280 -935 c-153 -514 -281
-935 -284 -935 -3 0 -122 393 -265 873 -142 479 -268 900 -278 935 l-19 62
-194 0 c-107 0 -194 -3 -194 -7z"/>
</g>
</svg>
