<?xml version="1.0" encoding="utf-8"?>
<!-- Generator: Adobe Illustrator 22.1.0, SVG Export Plug-In . SVG Version: 6.00 Build 0)  -->
<svg version="1.1" id="Laag_1" xmlns="http://www.w3.org/2000/svg" xmlns:xlink="http://www.w3.org/1999/xlink" x="0px" y="0px"
	 viewBox="0 0 1800 1800" style="enable-background:new 100 100 1850 1860;" xml:space="preserve">
<style type="text/css">
	.st0{fill:#656565;}
	.st1{fill:url(#SVGID_1_);}
	.st2{fill:url(#SVGID_2_);}
	.st3{opacity:0.444;fill:url(#SVGID_3_);enable-background:new    ;}
</style>
<linearGradient id="SVGID_1_" gradientUnits="userSpaceOnUse" x1="12914.6377" y1="-27007.6797" x2="12991.0264" y2="-27073.4023" gradientTransform="matrix(9.2563 0 0 -9.3468 -119299.5781 -252400.0313)">
	<stop  offset="0" style="stop-color:#5CA0D5"/>
	<stop  offset="1" style="stop-color:#316A99"/>
</linearGradient>
<path class="st1" d="M908.4,0.3c-52.7,0-103.7,4.9-148.1,13.2c-131.6,23-154.7,70.8-154.7,161.3v118.5h309.4v39.5H490.4
	c-88.9,0-167.8,54.3-192.5,156.3c-28,118.5-29.6,190.9,0,314.3c21.4,92.2,74.1,156.3,164.6,156.3h107V818.2
	c0-102,88.9-192.5,192.5-192.5h307.7c85.6,0,154.7-70.8,154.7-158V173.1c0-83.9-70.8-146.5-154.7-161.3
	C1015.3,3.6,961-1.3,908.4,0.3z M740.5,94.1c31.3,0,57.6,26.3,57.6,59.2s-26.3,59.2-57.6,59.2c-31.3,0-57.6-26.3-57.6-59.2
	S707.6,94.1,740.5,94.1z"/>
<linearGradient id="SVGID_2_" gradientUnits="userSpaceOnUse" x1="13020.6973" y1="-27113.1328" x2="12993.4189" y2="-27074.5391" gradientTransform="matrix(9.2563 0 0 -9.3468 -119299.5781 -252400.0313)">
	<stop  offset="0" style="stop-color:#FFD43E"/>
	<stop  offset="1" style="stop-color:#FFE975"/>
</linearGradient>
<path class="st2" d="M1262.2,329.4V466c0,107-90.5,195.8-194.2,195.8H760.3c-83.9,0-154.7,72.4-154.7,158v294.6
	c0,83.9,72.4,133.3,154.7,158c97.1,29.6,190.9,34.6,309.4,0c77.3-23,154.7-67.5,154.7-158V995.9H914.9v-39.5H1379
	c88.9,0,123.4-62.5,154.7-156.3c32.9-97.1,31.3-189.2,0-314.3c-21.4-88.9-64.2-156.3-154.7-156.3L1262.2,329.4z M1087.7,1074.9
	c31.3,0,57.6,26.3,57.6,59.2s-26.3,59.2-57.6,59.2c-31.3,0-57.6-26.3-57.6-59.2S1056.5,1074.9,1087.7,1074.9z"/>
<radialGradient id="SVGID_3_" cx="-83039.6641" cy="-13866.3984" r="20.3396" gradientTransform="matrix(0 -3.9477 -17.3558 0 -239744.5313 -326357.7188)" gradientUnits="userSpaceOnUse">
	<stop  offset="0" style="stop-color:#B8B8B8;stop-opacity:0.498"/>
	<stop  offset="1" style="stop-color:#7F8080;stop-opacity:0"/>
</radialGradient>
</svg>
